<?xml version="1.0" encoding="UTF-8"?>
<svg width="242px" height="58px" viewBox="0 0 242 58" version="1.1" xmlns="http://www.w3.org/2000/svg" xmlns:xlink="http://www.w3.org/1999/xlink">
    <!-- Generator: Sketch 52.2 (67145) - http://www.bohemiancoding.com/sketch -->
    <title>logo</title>
    <desc>Created with Sketch.</desc>
    <g id="Symbols" stroke="none" stroke-width="1" fill="none" fill-rule="evenodd">
        <g id="top-header-1280" transform="translate(-519.000000, -24.000000)" fill="#54BCEB">
            <g id="top-header">
                <path d="M751.121828,42.1957613 C757.367991,42.1957613 761,45.8844465 761,51.6413832 L761,65.9877301 L756.151232,65.9877301 L756.151232,51.4119144 C756.151232,47.9971765 754.460557,46.2392638 751.127917,46.18872 C747.787158,46.2392638 746.094453,47.9971765 746.094453,51.4119144 L746.094453,65.9877301 L741.243655,65.9877301 L741.243655,51.6413832 C741.243655,45.8844465 744.875665,42.1957613 751.121828,42.1957613 Z M722.551848,60.9596347 L723.918798,60.9596347 L723.918798,65.4833031 L721.747102,65.4833031 C716.797868,65.4833031 713.843753,62.4031651 713.843753,57.2416341 L713.843753,25.2868447 L718.594084,24 L718.594084,56.6866634 C718.590025,59.6748118 719.920442,60.9566021 722.551848,60.9596347 Z M541.277136,60.3915226 C542.928234,60.3915226 544.270829,61.7602482 544.270829,63.4403235 C544.270829,65.1203988 542.928234,66.4891244 541.277136,66.4891244 C539.626038,66.4891244 538.281413,65.1203988 538.281413,63.4403235 C538.281413,61.7602482 539.626038,60.3915226 541.277136,60.3915226 Z M596.388488,60.6664808 L606.335668,60.6664808 L606.335668,65.5732711 L591.051596,65.5732711 L591.051596,25.2656163 L596.388488,24 L596.388488,60.6664808 Z M681.258165,42.750732 L681.258165,46.8720719 L677.401882,46.8720719 C678.353775,48.2893196 678.886551,49.8743726 678.886551,51.4887409 C678.886551,56.7442833 674.854706,60.7099484 669.509695,60.7099484 C667.648531,60.7099484 666.23287,60.3945552 664.915645,59.6828988 C663.544635,58.9429378 662.732786,58.1140198 662.727712,58.1079545 C661.081688,56.5006623 660.058758,53.9643753 660.058758,51.4887409 C660.058758,46.1907418 664.121048,42.1957613 669.509695,42.1957613 C670.675713,42.1957613 671.784902,42.3797407 672.859587,42.750732 L681.258165,42.750732 Z M699.307597,41.5599205 C704.671889,41.5599205 708.005544,45.1909858 708.005544,51.0348578 L708.005544,65.3721068 L703.157791,65.3721068 L703.157791,51.4361754 C703.157791,47.8869911 701.529019,46.0896542 698.320186,46.0896542 C694.610036,46.0896542 692.305399,48.4965491 692.305399,52.374268 L692.305399,65.3721068 L687.458661,65.3721068 L687.458661,25.2261921 L692.305399,24 L692.305399,44.7947225 C693.976794,42.6981665 696.374792,41.5599205 699.307597,41.5599205 Z M732.058599,38.1835959 C730.408516,38.1835959 729.065921,36.8148703 729.065921,35.1337842 C729.065921,33.4537089 730.408516,32.087005 732.058599,32.087005 C733.712741,32.087005 735.058381,33.4537089 735.058381,35.1337842 C735.058381,36.8148703 733.712741,38.1835959 732.058599,38.1835959 Z M730.080732,65.4691509 L730.080732,42.1957613 L734.999522,42.1957613 L734.999522,65.4691509 L730.080732,65.4691509 Z M527.559933,25.2635945 L532.961773,24 L532.961773,69.4560443 C532.981054,73.6188302 531.92565,76.7919688 529.824991,78.8875139 C527.781161,80.9234175 524.743831,81.9504671 520.798245,81.9322713 L519.001015,81.8837493 L519,76.8789041 L520.66835,76.9102412 C523.190155,76.9102412 524.872712,76.3876185 525.96262,75.2675683 C527.126608,74.0686698 527.650251,72.1267777 527.559933,69.3246305 L527.559933,25.2635945 Z M670.888824,63.4241495 C677.97525,63.4241495 682.736745,67.1573132 682.736745,72.7151074 C682.736745,78.1819228 677.863621,82 670.888824,82 C663.916056,82 659.043947,78.1819228 659.043947,72.7151074 C659.043947,67.2442485 663.916056,63.4241495 670.888824,63.4241495 Z M581.285053,60.6098717 C581.285053,60.6098717 583.996628,63.2452245 583.997643,63.2391592 C583.997643,63.2391592 583.637385,63.6809119 583.655652,63.663727 C582.082695,65.614717 579.834888,66.6013316 576.976165,66.6013316 C572.272515,66.6013316 568.725749,62.8863636 568.725749,57.9593558 C568.725749,53.0070761 572.272515,49.2718907 576.976165,49.2718907 C579.633955,49.2718907 581.695037,50.1483199 583.282201,51.9567764 C583.282201,51.9567764 583.562289,52.2853109 583.651593,52.4895078 L580.758366,55.0429796 C580.758366,55.0429796 580.36056,54.5961726 580.35853,54.5961726 C579.44723,53.5590142 578.341086,53.0535764 576.976165,53.0535764 C574.614699,53.0535764 573.027534,54.9803054 573.027534,57.8481595 C573.027534,60.7736336 574.650217,62.818635 576.976165,62.818635 C578.495337,62.818635 579.656281,62.2444576 580.78881,61.111266 C580.78881,61.111266 581.283023,60.6108826 581.285053,60.6098717 Z M575.33623,28.0435025 L580.262123,28.0435025 L580.262123,44.1457404 L580.25299,44.263002 C580.25299,44.263002 579.538563,44.1467513 577.583022,44.1467513 C575.62748,44.1467513 574.928275,44.263002 574.928275,44.263002 L574.928275,35.6756135 C573.332992,37.459809 565.853834,45.8005438 565.787871,45.8490658 C565.787871,45.8490658 565.637679,45.9915993 565.440805,45.9915993 C565.246977,45.9915993 565.09577,45.8520984 565.092725,45.8490658 C565.092725,45.8490658 556.104542,36.0445831 555.730077,35.6372002 L555.730077,65.9604364 L550.459148,65.9604364 L550.459148,28.0435025 L555.164827,28.0455243 C555.164827,28.0455243 555.441871,28.104155 555.503774,28.1415574 C555.503774,28.1415574 565.289599,38.9852203 565.455013,39.1671779 C566.294262,38.2139222 575.069334,28.2355689 575.088616,28.2173731 L575.33623,28.0435025 Z M670.888824,77.5208101 C667.351192,77.5208101 663.54159,76.0166272 663.54159,72.7151074 C663.54159,69.4115658 667.351192,67.906372 670.888824,67.906372 C674.439648,67.906372 678.236057,69.1689557 678.236057,72.7151074 C678.236057,76.0166272 674.42747,77.5208101 670.888824,77.5208101 Z M650.611881,42.1957613 L655.458619,42.1957613 L655.458619,56.349031 C655.458619,62.1049568 652.01232,65.817903 645.580447,65.817903 C639.107981,65.817903 635.703289,62.1049568 635.703289,56.349031 L635.703289,42.1957613 L640.553072,42.1957613 L640.553072,56.5805215 C640.553072,59.9871723 642.243748,61.7400307 645.576388,61.7905745 C648.918161,61.7400307 650.611881,59.9871723 650.611881,56.5805215 L650.611881,42.1957613 Z M669.509695,56.5916411 C666.568772,56.5916411 664.514794,54.4920524 664.514794,51.4887409 C664.514794,48.43994 666.568772,46.3140686 669.509695,46.3140686 C672.449603,46.3140686 674.425441,48.3924289 674.425441,51.4887409 C674.425441,54.5385527 672.449603,56.5916411 669.509695,56.5916411 Z M629.583332,51.4968279 C629.695976,53.7490588 629.722361,55.4928193 629.657413,56.8878277 C629.639147,63.2260178 626.463803,65.8249791 620.505846,66.1868726 L620.208506,66.1919269 C620.208506,66.1919269 619.9751,66.1939487 619.869559,66.1909161 L619.554968,66.1767638 C619.554968,66.1767638 619.428116,66.1727203 619.284013,66.1605898 C617.693804,66.0746654 616.329898,65.7643265 615.204472,65.2679866 C612.309216,64.1590561 610.361793,61.6672476 610.333378,58.5183701 C610.313082,56.3197156 611.12899,54.5021612 612.844021,53.2476645 C614.389579,52.1175056 616.565334,51.4968279 618.972466,51.4968279 L625.293725,51.4968279 C625.286622,47.8991216 623.697427,46.148285 620.429735,46.148285 C617.847041,46.148285 616.008203,47.0964863 614.46163,49.2213469 C614.46163,49.2213469 614.442349,49.2324665 613.822299,48.7442136 C613.432612,48.4369074 612.272683,47.4290644 611.949973,47.1065951 C611.536944,46.6951687 611.523752,46.6648424 611.523752,46.6648424 C613.73604,43.6564766 616.691171,42.1957613 620.558616,42.1957613 C626.502365,42.1957613 629.588406,45.5670315 629.583332,51.4968279 Z M619.238347,55.2461656 L625.29677,55.2461656 L625.29677,57.445831 C625.29677,59.3998536 624.928393,60.3328918 623.771508,61.176973 C622.691749,61.9654559 621.009192,62.1878486 619.408835,62.1878486 C616.39789,62.1878486 614.702141,60.8160904 614.702141,58.5234244 C614.702141,56.4410206 616.356283,55.2461656 619.238347,55.2461656" id="logo"></path>
            </g>
        </g>
    </g>
</svg>